<?xml version="1.0" encoding="UTF-8"?>
<!-- Generator: Adobe Illustrator 22.0.1, SVG Export Plug-In . SVG Version: 6.00 Build 0)  -->
<svg version="1.1" id="Layer_1" xmlns="http://www.w3.org/2000/svg" xmlns:xlink="http://www.w3.org/1999/xlink" x="0px" y="0px" viewBox="0 0 50 50" style="enable-background:new 0 0 50 50;" xml:space="preserve">
<style type="text/css">
	.st0{clip-path:url(#SVGID_2_);}
	.st1{fill:url(#SVGID_3_);}
	.st2{fill:url(#SVGID_4_);}
	.st3{fill:url(#SVGID_5_);}
	.st4{fill:#FFFFFF;}
</style>
<g>
	<defs>
		<path id="SVGID_1_" d="M44.6,11.4L26.8,1.1c-1-0.6-2.7-0.6-3.7,0L5.2,11.4c-1,0.6-1.9,2.1-1.9,3.2v20.6c0.1,1.4,0.8,2.5,1.9,3.2    L23,48.8c1,0.6,2.7,0.6,3.7,0l17.8-10.3c1.2-0.8,1.8-1.9,1.9-3.2V14.6C46.5,13.4,45.7,12.1,44.6,11.4z"/>
	</defs>
	<clipPath id="SVGID_2_">
		<use xlink:href="#SVGID_1_" style="overflow:visible;"/>
	</clipPath>
	<g class="st0">
		
			<linearGradient id="SVGID_3_" gradientUnits="userSpaceOnUse" x1="65.5562" y1="1.959" x2="79.2253" y2="-15.5366" gradientTransform="matrix(0.8974 0 0 -0.8974 -25.6923 22.0513)">
			<stop offset="0" style="stop-color:#3B009B"/>
			<stop offset="1" style="stop-color:#390086"/>
		</linearGradient>
		<rect x="24.5" y="12.4" class="st1" width="25.4" height="25.9"/>
		
			<linearGradient id="SVGID_4_" gradientUnits="userSpaceOnUse" x1="44.5288" y1="-10.6088" x2="59.061" y2="-29.2092" gradientTransform="matrix(0.8974 0 0 -0.8974 -25.6923 22.0513)">
			<stop offset="0" style="stop-color:#340084"/>
			<stop offset="1" style="stop-color:#290064"/>
		</linearGradient>
		<polygon class="st2" points="49.8,39.3 17.2,20.4 0.5,20.4 0.5,51.7 49.8,51.7   "/>
		
			<linearGradient id="SVGID_5_" gradientUnits="userSpaceOnUse" x1="45.1427" y1="17.9747" x2="60.0159" y2="-1.0622" gradientTransform="matrix(0.8974 0 0 -0.8974 -25.6923 22.0513)">
			<stop offset="0" style="stop-color:#A47EDE"/>
			<stop offset="1" style="stop-color:#9866D3"/>
		</linearGradient>
		<polygon class="st3" points="0.5,39.1 49.8,10.5 49.8,-0.8 0.5,-0.8   "/>
	</g>
</g>
<path id="c" class="st4" d="M10.2,25c-0.1-14.5,19.3-20.8,27.6-7.4l-6.4,3.7c-3.9-6.4-13.5-4.1-13.8,3.7c0.1,7.2,9.5,10.5,13.8,3.7  l6.4,3.7C30.5,45.2,10.6,40.6,10.2,25z"/>
<g id="sharp">
	<polygon class="st4" points="34.6,20.8 35.8,20.8 35,28.9 33.8,28.9  "/>
	<polygon class="st4" points="37.2,20.8 38.4,20.8 37.6,28.9 36.4,28.9  "/>
	<rect x="33.2" y="22.7" class="st4" width="6.1" height="1.2"/>
	<rect x="32.9" y="25.6" class="st4" width="6.1" height="1.2"/>
</g>
</svg>