<svg xmlns="http://www.w3.org/2000/svg" xmlns:xlink="http://www.w3.org/1999/xlink" width="321" height="263.374" viewBox="0 0 321 263.374">
  <defs>
    <linearGradient id="linear-gradient" x1="0.5" y1="1" x2="0.5" gradientUnits="objectBoundingBox">
      <stop offset="0" stop-color="#4842a8"/>
      <stop offset="1" stop-color="#524bb8"/>
    </linearGradient>
    <clipPath id="clip-path">
      <rect id="Rectangle_19111" data-name="Rectangle 19111" width="321" height="263.374" transform="translate(814 11283)" fill="url(#linear-gradient)"/>
    </clipPath>
  </defs>
  <g id="pattern2" transform="translate(-814 -11283)" clip-path="url(#clip-path)">
    <g id="pattern2-2" data-name="pattern2" transform="translate(663.69 11268.033)" opacity="0.5">
      <g id="Path_1045" data-name="Path 1045" transform="translate(410.31 103.518) rotate(45)" opacity="0.09">
        <path id="Path_29571" data-name="Path 29571" d="M56.306,0H190.93a56.306,56.306,0,0,1,56.306,56.306V190.93a56.306,56.306,0,0,1-56.306,56.306H56.306A56.306,56.306,0,0,1,0,190.93V56.306A56.306,56.306,0,0,1,56.306,0Z" fill="none"/>
        <path id="Path_29572" data-name="Path 29572" d="M56.306,5A51.259,51.259,0,0,0,5,56.306V190.93a51.26,51.26,0,0,0,51.306,51.306H190.93a51.26,51.26,0,0,0,51.306-51.306V56.306A51.259,51.259,0,0,0,190.93,5H56.306m0-5H190.93a56.306,56.306,0,0,1,56.306,56.306V190.93a56.306,56.306,0,0,1-56.306,56.306H56.306A56.306,56.306,0,0,1,0,190.93V56.306A56.306,56.306,0,0,1,56.306,0Z" fill="#fff"/>
      </g>
      <g id="Path_1044" data-name="Path 1044" transform="translate(410.31 72.028) rotate(45)" opacity="0.09">
        <path id="Path_29573" data-name="Path 29573" d="M56.306,0H235.463a56.306,56.306,0,0,1,56.306,56.306V235.463a56.306,56.306,0,0,1-56.306,56.306H56.306A56.306,56.306,0,0,1,0,235.463V56.306A56.306,56.306,0,0,1,56.306,0Z" fill="none"/>
        <path id="Path_29574" data-name="Path 29574" d="M56.306,5A51.259,51.259,0,0,0,5,56.306V235.463a51.26,51.26,0,0,0,51.306,51.306H235.463a51.26,51.26,0,0,0,51.306-51.306V56.306A51.259,51.259,0,0,0,235.463,5H56.306m0-5H235.463a56.306,56.306,0,0,1,56.306,56.306V235.463a56.306,56.306,0,0,1-56.306,56.306H56.306A56.306,56.306,0,0,1,0,235.463V56.306A56.306,56.306,0,0,1,56.306,0Z" fill="#fff"/>
      </g>
      <g id="Path_1043" data-name="Path 1043" transform="translate(410.31 37.643) rotate(45)" opacity="0.09">
        <path id="Path_29575" data-name="Path 29575" d="M56.306,0H284.091A56.307,56.307,0,0,1,340.4,56.309V284.091A56.307,56.307,0,0,1,284.088,340.4H56.306A56.306,56.306,0,0,1,0,284.091V56.306A56.306,56.306,0,0,1,56.306,0Z" fill="none"/>
        <path id="Path_29576" data-name="Path 29576" d="M56.306,5A51.259,51.259,0,0,0,5,56.306V284.091A51.26,51.26,0,0,0,56.306,335.4H284.091A51.26,51.26,0,0,0,335.4,284.091V56.306A51.259,51.259,0,0,0,284.091,5H56.306m0-5H284.091A56.306,56.306,0,0,1,340.4,56.306V284.091A56.306,56.306,0,0,1,284.091,340.4H56.306A56.306,56.306,0,0,1,0,284.091V56.306A56.306,56.306,0,0,1,56.306,0Z" fill="#fff"/>
      </g>
      <g id="Path_1042" data-name="Path 1042" transform="translate(410.31) rotate(45)" opacity="0.09">
        <path id="Path_29577" data-name="Path 29577" d="M56.306,0h281.02a56.306,56.306,0,0,1,56.306,56.306v281.02a56.306,56.306,0,0,1-56.306,56.306H56.306A56.306,56.306,0,0,1,0,337.326V56.306A56.306,56.306,0,0,1,56.306,0Z" fill="none"/>
        <path id="Path_29578" data-name="Path 29578" d="M56.306,5A51.259,51.259,0,0,0,5,56.306v281.02a51.257,51.257,0,0,0,51.306,51.306h281.02a51.257,51.257,0,0,0,51.306-51.306V56.306A51.259,51.259,0,0,0,337.326,5H56.306m0-5h281.02a56.306,56.306,0,0,1,56.306,56.306v281.02a56.306,56.306,0,0,1-56.306,56.306H56.306A56.306,56.306,0,0,1,0,337.326V56.306A56.306,56.306,0,0,1,56.306,0Z" fill="#fff"/>
      </g>
    </g>
  </g>
</svg>